<?xml version="1.0" standalone="no"?>
<svg viewBox="0 0 200 200" xmlns="http://www.w3.org/2000/svg">
  <path fill="#FF0066" d="M40.1,-69.6C54.2,-61.4,69.2,-55,79,-43.7C88.9,-32.4,93.5,-16.2,92.7,-0.5C91.8,15.3,85.6,30.5,76.6,43.2C67.5,55.8,55.7,65.9,42.4,74.2C29.2,82.6,14.6,89.3,-0.2,89.7C-15.1,90.1,-30.2,84.3,-43.1,75.7C-55.9,67.2,-66.5,55.9,-73.6,42.8C-80.6,29.7,-84,14.8,-82.8,0.6C-81.7,-13.6,-76.1,-27.1,-69.3,-40.6C-62.6,-54.1,-54.6,-67.5,-42.9,-77C-31.1,-86.6,-15.6,-92.3,-1.3,-90.1C13,-87.9,26.1,-77.8,40.1,-69.6Z" transform="translate(100 100)" />
</svg>
